<?xml version="1.0" standalone="no"?>
<!DOCTYPE svg PUBLIC "-//W3C//DTD SVG 20010904//EN"
 "http://www.w3.org/TR/2001/REC-SVG-20010904/DTD/svg10.dtd">
<svg version="1.0" xmlns="http://www.w3.org/2000/svg"
 width="262.000000pt" height="254.000000pt" viewBox="0 0 262.000000 254.000000"
 preserveAspectRatio="xMidYMid meet">

<g transform="translate(0.000000,254.000000) scale(0.100000,-0.100000)"
fill="#000000" stroke="none">
<path d="M955 2270 c-99 -31 -199 -127 -231 -222 -14 -44 -20 -50 -75 -74 -69
-31 -140 -102 -172 -172 -33 -72 -31 -207 4 -282 33 -70 99 -136 169 -169 47
-22 69 -26 148 -26 l92 0 0 -185 0 -185 203 203 202 202 195 -195 c107 -107
198 -195 202 -195 5 0 8 80 8 178 l0 177 93 0 c80 0 99 4 148 28 69 34 132
100 167 175 34 76 36 181 3 265 -40 102 -139 184 -251 208 -32 7 -50 16 -50
25 0 28 -51 115 -91 155 -108 108 -303 130 -421 47 l-28 -19 -67 33 c-56 27
-80 33 -143 35 -41 1 -88 -2 -105 -7z m173 -65 c28 -9 70 -30 94 -48 l43 -33
43 33 c44 33 125 63 172 63 40 0 117 -25 153 -50 49 -34 97 -103 116 -167 l17
-58 55 -6 c70 -7 117 -28 162 -73 62 -62 82 -110 82 -201 0 -70 -4 -87 -29
-133 -51 -91 -139 -141 -247 -142 -37 0 -83 7 -102 15 -20 8 -41 15 -47 15 -6
0 -10 -54 -10 -152 l0 -153 -170 170 -170 170 -165 -165 -165 -165 0 146 c0
80 -2 148 -6 151 -3 3 -28 -3 -57 -14 -99 -38 -222 -13 -300 60 -83 77 -106
217 -55 318 41 78 140 153 204 154 18 0 23 8 28 43 9 56 57 139 102 173 41 32
125 63 170 64 17 0 53 -7 82 -15z"/>
<path d="M1229 993 c0 -10 0 -67 0 -128 l0 -110 65 -3 66 -3 0 131 0 130 -65
0 c-55 0 -65 -3 -66 -17z"/>
<path d="M1658 764 c-28 -15 -58 -61 -58 -89 0 -8 -7 -15 -15 -15 -10 0 -15
-10 -15 -30 0 -18 6 -33 15 -36 12 -5 15 -25 15 -95 l0 -89 35 0 35 0 0 90 0
90 35 0 c33 0 35 2 35 35 0 34 -1 35 -39 35 -35 0 -39 2 -34 21 6 23 22 32 62
34 22 1 27 6 29 33 3 31 2 32 -35 32 -21 -1 -50 -7 -65 -16z"/>
<path d="M1077 754 c-4 -4 -7 -83 -7 -176 l0 -168 35 0 35 0 0 85 c0 81 1 86
25 97 21 9 28 8 45 -7 17 -15 20 -31 20 -97 l0 -78 30 0 30 0 0 91 c0 91 0 91
-35 126 -30 30 -40 35 -75 31 l-39 -3 -3 50 c-3 45 -5 50 -28 53 -14 2 -29 0
-33 -4z"/>
<path d="M890 652 c-42 -21 -80 -75 -80 -114 0 -63 41 -117 101 -131 32 -8 91
8 112 31 14 15 14 19 -4 40 -17 22 -20 23 -41 8 -47 -34 -98 -7 -98 51 0 55
52 80 99 47 22 -15 24 -15 44 4 18 18 19 23 6 38 -15 18 -69 44 -91 44 -7 0
-29 -8 -48 -18z"/>
<path d="M1398 654 c-48 -20 -83 -87 -74 -139 19 -102 146 -147 212 -74 17 19
17 20 -4 41 -20 21 -22 21 -41 4 -11 -10 -26 -16 -35 -14 -11 2 1 22 41 70 62
75 61 87 -4 115 -40 16 -49 16 -95 -3z m62 -61 c0 -5 -16 -26 -35 -48 l-34
-40 -1 29 c0 34 25 66 52 66 10 0 18 -3 18 -7z"/>
<path d="M670 265 l0 -175 30 0 30 0 0 79 c0 84 12 111 49 111 31 0 40 -23 43
-105 l3 -80 30 0 30 0 0 92 c0 91 -1 93 -32 124 -27 27 -39 32 -77 31 l-46 0
0 49 c0 48 -1 49 -30 49 l-30 0 0 -175z"/>
<path d="M990 338 c-13 -7 -35 -29 -48 -48 -19 -29 -23 -44 -19 -84 4 -41 11
-55 41 -83 30 -27 44 -33 82 -33 41 0 51 5 85 39 35 35 39 44 39 90 0 44 -5
56 -33 87 -26 29 -42 37 -77 40 -26 3 -55 -1 -70 -8z m106 -83 c33 -51 -19
-121 -72 -97 -64 30 -47 122 22 122 25 0 38 -7 50 -25z"/>
<path d="M1768 334 c-80 -43 -77 -188 4 -230 41 -21 113 -14 141 15 l21 21
-21 21 c-20 20 -22 20 -46 4 -50 -33 -47 -9 8 57 30 36 55 71 55 77 0 19 -63
51 -100 51 -19 -1 -47 -7 -62 -16z m47 -94 c-32 -46 -45 -50 -45 -17 0 24 22
50 50 59 25 9 24 0 -5 -42z"/>
<path d="M1200 265 c0 -84 16 -134 51 -159 29 -20 89 -21 115 -2 17 13 21 12
37 -1 16 -15 17 -9 17 110 l0 127 -30 0 -30 0 0 -78 c0 -66 -3 -82 -20 -97
-17 -15 -24 -16 -45 -7 -24 11 -25 16 -25 97 l0 85 -35 0 -35 0 0 -75z"/>
<path d="M1502 333 c-15 -6 -42 -56 -42 -78 0 -9 13 -30 29 -46 25 -24 37 -29
80 -29 82 0 59 -19 -26 -22 l-78 -3 0 -30 0 -30 81 -3 c74 -2 85 0 108 20 38
34 42 69 13 103 -19 23 -34 29 -81 33 -79 6 -67 26 17 30 67 3 67 3 67 32 l0
30 -77 -1 c-43 0 -84 -3 -91 -6z"/>
</g>
</svg>
